<svg width="24" height="24" viewBox="0 0 24 24" fill="none" xmlns="http://www.w3.org/2000/svg">
<path d="M6.90043 12.7909C6.90043 13.1472 6.93496 13.4324 6.99571 13.6465C7.06566 13.8603 7.15982 14.0955 7.28708 14.353C7.33864 14.4464 7.36399 14.5377 7.36399 14.6225C7.36399 14.7303 7.3063 14.8413 7.1883 14.9516L6.70736 15.2952C6.64661 15.3464 6.58283 15.3717 6.5214 15.3717C6.44528 15.3717 6.36917 15.3377 6.29273 15.2679C6.16547 15.1508 6.05654 15.0216 5.96238 14.8797C5.86823 14.7366 5.77407 14.582 5.67992 14.4122C5.06445 15.1953 4.28029 15.5862 3.32799 15.5862C2.67137 15.5862 2.14427 15.3887 1.75738 14.992C1.37049 14.5962 1.17676 14.0739 1.17676 13.4242C1.17676 12.7316 1.41897 12.1686 1.90273 11.7324C2.38649 11.2959 3.04343 11.0785 3.87486 11.0785C4.12022 11.0785 4.37131 11.0993 4.62794 11.1389C4.88458 11.1796 5.15027 11.234 5.42188 11.3031V10.687C5.42188 10.0958 5.29147 9.67051 5.02929 9.41107C4.76711 9.15163 4.33775 9.02122 3.74122 9.02122C3.45962 9.02122 3.1705 9.06307 2.87634 9.14609C2.58154 9.22911 2.29673 9.34017 2.02223 9.47534C1.89497 9.54214 1.79775 9.57682 1.73084 9.59206C1.66089 9.60793 1.60759 9.61522 1.56522 9.61522C1.43796 9.61522 1.37427 9.53556 1.37427 9.37689V8.92387C1.37427 8.80394 1.39348 8.71103 1.43263 8.64423C1.47179 8.57743 1.54481 8.51062 1.66089 8.44447C1.93539 8.27521 2.26321 8.13873 2.64401 8.03508C3.02481 7.93078 3.42661 7.87886 3.84983 7.87886C4.77377 7.87886 5.45947 8.09763 5.90699 8.53549C6.35388 8.97401 6.57792 9.63413 6.57792 10.517V12.7909H6.90043ZM3.79858 14.4898C4.06076 14.4898 4.33156 14.4238 4.61512 14.2919C4.89935 14.1611 5.14144 13.9697 5.33517 13.7195C5.45628 13.5672 5.54429 13.3989 5.59847 13.2136C5.65266 13.0289 5.6805 12.824 5.6805 12.5972V12.2557C5.48677 12.2036 5.27685 12.1621 5.05313 12.1312C4.8294 12.1015 4.60632 12.0859 4.38195 12.0859C3.87932 12.0859 3.51375 12.1823 3.2854 12.377C3.05771 12.5716 2.94387 12.8451 2.94387 13.196C2.94387 13.5284 3.03419 13.7826 3.21611 13.9559C3.39804 14.1303 3.6527 14.4898 3.79858 14.4898ZM10.908 15.3007C10.7453 15.3007 10.6357 15.2718 10.5699 15.2144C10.5048 15.1572 10.4472 15.0427 10.3961 14.8797L8.68506 9.14609C8.63415 8.98741 8.60826 8.88376 8.60826 8.8317C8.60826 8.68871 8.67758 8.61602 8.81557 8.61602H9.55827C9.7284 8.61602 9.84297 8.64488 9.90435 8.70195C9.96637 8.75968 10.0181 8.87412 10.0692 9.04402L11.3571 14.0155L12.5423 9.04402C12.5869 8.8684 12.6375 8.7536 12.6995 8.70195C12.7609 8.64488 12.8821 8.61602 13.0459 8.61602H13.6418C13.8063 8.61602 13.9257 8.64488 13.9877 8.70195C14.0498 8.7536 14.1064 8.87412 14.1448 9.04402L15.3462 14.0808L16.6764 9.04402C16.7262 8.87412 16.7775 8.75968 16.8388 8.70195C16.9015 8.64488 17.0154 8.61602 17.1855 8.61602H17.8919C18.0311 8.61602 18.1004 8.68871 18.1004 8.8317C18.1004 8.8628 18.0946 8.89684 18.0835 8.93665C18.0723 8.97711 18.0553 9.0292 18.0311 9.09601L16.2825 14.8797C16.2314 15.0427 16.1732 15.1572 16.1076 15.2144C16.0425 15.2718 15.9335 15.3007 15.7827 15.3007H15.1565C14.9921 15.3007 14.8726 15.2718 14.8099 15.2144C14.7478 15.1572 14.6887 15.0415 14.6509 14.8734L13.4787 10.0577L12.3096 14.8722C12.2718 15.0402 12.2133 15.156 12.1513 15.2132C12.0892 15.2706 11.9678 15.2994 11.8046 15.2994H10.908V15.3007ZM22.8259 15.5576C22.3727 15.5576 21.9231 15.5001 21.4795 15.3852C21.0347 15.2718 20.6791 15.1341 20.4202 14.9745C20.3041 14.9065 20.2206 14.8344 20.18 14.7603C20.1395 14.6873 20.1188 14.6089 20.1188 14.5352V14.0684C20.1188 13.9097 20.1884 13.8309 20.3264 13.8309C20.3888 13.8309 20.4506 13.8461 20.5139 13.8764C20.5771 13.9068 20.6545 13.9446 20.745 13.9893C21.0039 14.1237 21.2869 14.2308 21.5932 14.3089C21.9023 14.3869 22.2021 14.4259 22.4943 14.4259C22.9594 14.4259 23.3244 14.3382 23.5866 14.1624C23.8489 13.9873 23.9823 13.7471 23.9823 13.4461C23.9823 13.2356 23.9175 13.0594 23.7867 12.9126C23.6566 12.7663 23.4275 12.6345 23.0997 12.5174L21.9388 12.1208C21.4512 11.9592 21.0943 11.7243 20.8696 11.4167C20.6442 11.1097 20.5326 10.7688 20.5326 10.3981C20.5326 10.0993 20.5929 9.8351 20.7152 9.60273C20.8368 9.37036 21.0026 9.17345 21.2109 9.01349C21.4193 8.85289 21.6623 8.73296 21.9382 8.65059C22.214 8.56757 22.509 8.52641 22.8211 8.52641C22.9978 8.52641 23.1774 8.53953 23.3585 8.56757C23.5416 8.59496 23.7126 8.63088 23.873 8.67069C24.0246 8.71114 24.1682 8.75386 24.3026 8.79986C24.437 8.84651 24.5459 8.8935 24.6294 8.94049C24.7307 8.99323 24.8071 9.04662 24.8566 9.10325C24.906 9.16053 24.9304 9.23268 24.9304 9.32039V9.75824C24.9304 9.91691 24.8608 9.9957 24.7228 9.9957C24.6475 9.9957 24.5406 9.96896 24.4062 9.91167C24.0767 9.75886 23.7222 9.63028 23.3413 9.52663C22.9617 9.42298 22.594 9.37092 22.2394 9.37092C21.8232 9.37092 21.4929 9.44731 21.2569 9.60273C21.0209 9.7575 20.9017 9.98458 20.9017 10.2893C20.9017 10.4998 20.9693 10.6767 21.1064 10.82C21.2435 10.9639 21.4919 11.0958 21.8515 11.2182L22.9901 11.6148C23.4653 11.7764 23.813 11.9999 24.0335 12.2892C24.2541 12.5782 24.3632 12.9042 24.3632 13.2749C24.3632 13.5832 24.2987 13.8569 24.1705 14.0961C24.042 14.3349 23.8663 14.5376 23.6463 14.7035C23.4258 14.8713 23.1654 14.9997 22.8686 15.0873C22.5678 15.1746 22.2141 15.5576 22.8259 15.5576Z" fill="#FF9900"/>
<path d="M22.3148 19.1367C19.5057 21.2295 15.4622 22.3895 11.9551 22.3895C7.04495 22.3895 2.65009 20.4639 0.04917 17.3848C-0.159196 17.1405 0.103524 16.8231 0.362462 17.0144C3.1739 18.7538 6.64254 19.7965 10.2258 19.7965C12.6318 19.7965 15.2721 19.2845 17.7365 18.229C18.1433 18.0521 18.4952 18.4916 22.3148 19.1367Z" fill="#FF9900"/>
<path d="M23.3957 17.8968C23.0367 17.4382 21.0588 17.6711 20.0634 17.7832C19.8093 17.82 19.7637 17.5988 19.9895 17.4338C21.5854 16.304 24.2016 16.6359 24.5096 17.0139C24.8183 17.3931 24.4228 20.0095 22.9252 21.2686C22.712 21.4485 22.4981 21.3522 22.6032 21.1157C22.9406 20.3283 23.7558 18.3566 23.3957 17.8968Z" fill="#FF9900"/>
</svg>