<svg width="24" height="24" viewBox="0 0 24 24" fill="none" xmlns="http://www.w3.org/2000/svg">
<path d="M23.977 21.03L18.398 4.159C18.287 3.873 18.04 3.667 17.751 3.609C17.649 3.589 17.543 3.589 17.441 3.609C17.272 3.639 17.111 3.707 16.972 3.806L6.261 11.079L9.967 10.869L15.103 5.343C15.132 5.309 15.176 5.299 15.215 5.318C15.254 5.338 15.264 5.386 15.235 5.421L9.346 12.592L15.337 20.212C15.434 20.325 15.566 20.39 15.708 20.396C15.719 20.396 15.731 20.396 15.742 20.396C15.845 20.389 15.944 20.351 16.027 20.286C16.174 20.176 16.266 20.003 16.274 19.813L16.967 13.115L23.645 21.129C23.781 21.302 23.988 21.403 24.211 21.403C24.333 21.401 24.451 21.369 24.556 21.307C24.809 21.172 24.952 20.906 24.945 20.618C24.945 20.412 24.884 20.209 24.764 20.043L17.772 11.639L17.224 6.871C17.214 6.793 17.247 6.717 17.307 6.672C17.367 6.627 17.445 6.617 17.515 6.646L20.767 8.676C20.864 8.744 20.913 8.871 20.882 8.994L17.985 19.077C17.955 19.187 17.978 19.307 18.045 19.398C18.112 19.488 18.215 19.539 18.323 19.535C18.345 19.535 18.367 19.533 18.388 19.528C18.532 19.5 18.652 19.398 18.689 19.256L21.643 9.05C21.685 8.902 21.776 8.773 21.899 8.694L23.977 21.03ZM11.265 21.146H1.698C1.293 21.146 0.966 20.815 0.966 20.404C0.966 20.195 1.049 19.994 1.197 19.85C1.344 19.705 1.544 19.625 1.753 19.628H9.578L4.589 12.008C4.492 11.896 4.36 11.83 4.218 11.825C4.206 11.825 4.194 11.825 4.182 11.825C4.079 11.833 3.981 11.87 3.898 11.936C3.751 12.044 3.658 12.218 3.65 12.407L2.958 19.105L0.32 15.798C0.161 15.603 0.105 15.347 0.17 15.105C0.235 14.862 0.412 14.664 0.645 14.571L6.966 12.029L12.033 0.8C12.144 0.534 12.391 0.348 12.673 0.304C12.775 0.285 12.881 0.285 12.983 0.304C13.141 0.33 13.29 0.401 13.413 0.508C13.552 0.625 13.649 0.791 13.682 0.978L15.757 9.809L9.633 10.021L11.265 21.146Z" fill="#0078D4"/>
</svg>