<svg width="24" height="24" viewBox="0 0 24 24" fill="none" xmlns="http://www.w3.org/2000/svg">
<path fill-rule="evenodd" clip-rule="evenodd" d="M23.7119 9.52591C23.2396 9.2033 22.4246 9.0625 21.6095 9.12304C21.506 8.45 21.198 7.8348 20.684 7.32174C19.5628 6.2033 17.7937 6.2033 16.6725 7.32174C16.4656 7.52939 16.2586 7.79765 16.1551 8.06591C15.7448 7.25217 15.0333 6.5 14.0664 6.0679C12.9452 5.55435 11.7205 5.49348 10.6028 5.8098C10.1924 4.54348 9.17249 3.45652 7.92476 2.94348C5.84379 2.125 3.45107 2.8478 2.22701 4.6652C1.27613 6.0679 1.27613 7.92397 2.22701 9.32652C2.43398 9.59478 2.6409 9.80217 2.8514 10.0098C1.93 10.4429 1.17841 11.1949 0.871712 12.1228C0.358475 13.5949 0.976334 15.1891 2.43398 15.6826C2.74068 15.8082 3.10424 15.9 3.46775 15.9C3.14748 16.7457 3.14748 17.7348 3.67066 18.6608C4.51817 20.0837 6.39271 20.5185 7.92476 19.6533C8.12815 19.5326 8.3281 19.3793 8.52792 19.2261C8.73135 20.1837 9.38011 21.1467 10.3989 21.6413C12.0122 22.4294 13.9487 21.7054 14.7892 20.1326C14.9961 19.7391 15.0996 19.2837 15.0996 18.8293C16.4519 19.4435 18.1686 19.1674 19.2209 18.1174C20.0685 17.2739 20.272 16.1261 20.1685 15.0391C21.9375 15.0391 23.5509 13.6261 23.7119 11.875C23.8154 11.0619 23.5509 10.2467 23.7119 9.52591ZM15.2754 12.7761H13.7275V14.3239H15.2754V12.7761ZM9.57868 12.7761H8.03085V14.3239H9.57868V12.7761ZM11.4236 12.7761H9.87577V14.3239H11.4236V12.7761ZM13.2688 12.7761H11.7209V14.3239H13.2688V12.7761ZM7.72137 12.7761H6.17354V14.3239H7.72137V12.7761ZM5.82354 10.9348H4.27571V12.4826H5.82354V10.9348ZM7.72137 10.9348H6.17354V12.4826H7.72137V10.9348ZM9.57868 10.9348H8.03085V12.4826H9.57868V10.9348ZM11.4236 10.9348H9.87577V12.4826H11.4236V10.9348ZM13.2688 10.9348H11.7209V12.4826H13.2688V10.9348ZM9.57868 9.09348H8.03085V10.6413H9.57868V9.09348ZM11.4236 9.09348H9.87577V10.6413H11.4236V9.09348ZM13.2688 9.09348H11.7209V10.6413H13.2688V9.09348Z" fill="#2496ED"/>
</svg>