<svg width="32" height="32" viewBox="0 0 32 32" xmlns="http://www.w3.org/2000/svg">
<path d="M16.0001 16C16.0001 13.7909 17.791 12 20.0001 12C22.2093 12 24.0001 13.7909 24.0001 16C24.0001 18.2091 22.2093 20 20.0001 20C17.791 20 16.0001 18.2091 16.0001 16Z" fill="#1ABCFE"/>
<path d="M8.00012 24C8.00012 21.7909 9.79098 20 12.0001 20H16.0001V24C16.0001 26.2091 14.2093 28 12.0001 28C9.79098 28 8.00012 26.2091 8.00012 24Z" fill="#0ACF83"/>
<path d="M16.0001 4V12H20.0001C22.2093 12 24.0001 10.2091 24.0001 8C24.0001 5.79086 22.2093 4 20.0001 4H16.0001Z" fill="#FF7262"/>
<path d="M8.00012 8C8.00012 10.2091 9.79098 12 12.0001 12H16.0001V4H12.0001C9.79098 4 8.00012 5.79086 8.00012 8Z" fill="#F24E1E"/>
<path d="M8.00012 16C8.00012 18.2091 9.79098 20 12.0001 20H16.0001V12H12.0001C9.79098 12 8.00012 13.7909 8.00012 16Z" fill="#A259FF"/>
</svg>