<svg width="24" height="24" viewBox="0 0 24 24" xmlns="http://www.w3.org/2000/svg">
<path d="M3.89237 15.6784L5.04157 3.77234C5.08861 3.32234 5.65059 3.11085 5.98851 3.42973L8.93283 6.2451L3.89237 15.6784Z" fill="#FFC24A"/>
<path d="M3.89238 15.678L5.02248 3.78054C5.06952 3.33054 5.62033 3.11169 5.95825 3.43057M3.89238 15.678L5.95825 3.43057M3.89238 15.678L14.1004 6.63379M5.95825 3.43057L8.90258 6.24594L14.1004 6.63379M14.1004 6.63379L8.64872 0.584991C8.37541 0.291491 7.91472 0.419863 7.81146 0.809748L5.94462 6.23774" fill="#FFA000"/>
<path d="M3.89233 15.6782L3.93937 15.5846L4.63297 15.0874L14.0293 6.67896L8.8793 6.28192L3.89233 15.6782Z" fill="#F57C00"/>
<path d="M3.89232 15.6782L11.7123 23.6126C12.0914 23.9918 12.6675 23.9918 13.0466 23.6126L19.8466 16.8126C20.2257 16.4335 20.2257 15.8574 19.8466 15.4783L14.0293 6.67896L3.89232 15.6782Z" fill="#FFCA28"/>
<path d="M14.0292 6.67872L19.8465 15.478L16.7901 3.91246C16.6869 3.51264 16.2417 3.30872 15.88 3.50284L8.87917 6.28163L14.0292 6.67872Z" fill="#FFA000"/>
</svg>