<svg width="24" height="24" viewBox="0 0 24 24" fill="none" xmlns="http://www.w3.org/2000/svg">
<path d="M15.0401 14.9712L15.0431 14.9587L18.3741 11.6227L18.3771 11.6347C18.7441 10.9477 18.9471 10.1587 18.9471 9.32366C18.9471 8.46766 18.7381 7.65166 18.3441 6.95666C17.9501 6.26266 17.3741 5.68466 16.6821 5.29866L15.0401 14.9712Z" fill="#EA4335"/>
<path d="M14.1061 4.92276C13.4151 4.52976 12.6011 4.33276 11.7461 4.33276C9.8971 4.33276 8.2791 5.28876 7.2791 6.70876L9.0001 8.42976L9.0031 8.42676C9.5351 7.51176 10.5661 6.86976 11.7461 6.86976C12.1681 6.86976 12.5751 6.94176 12.9541 7.08576L14.1061 4.92276Z" fill="#FBBC05"/>
<path d="M11.7471 11.7778C10.1691 11.7778 8.8871 10.4948 8.8871 8.9178C8.8871 8.4988 8.9731 8.0898 9.1371 7.7158L7.2791 6.7098C6.8741 7.5188 6.6591 8.4328 6.6591 9.3238C6.6591 11.2928 7.6471 13.0078 9.1761 13.9788L11.0191 12.6418C11.2621 12.5228 11.5051 12.4098 11.7471 12.3338C11.5051 11.9418 11.5051 11.9418 11.7471 11.7778Z" fill="#4285F4"/>
<path d="M16.4421 13.9789C16.7671 14.6609 16.9501 15.4059 16.9501 16.1939C16.9501 17.0479 16.7531 17.8618 16.3621 18.5558L18.2171 19.5618C18.9471 18.3638 19.3531 16.9858 19.3531 15.4958C19.3531 14.6238 19.1731 13.7998 18.8571 13.0408L16.4421 13.9789Z" fill="#34A853"/>
<path d="M12.6371 16.1937C12.6371 15.2887 12.3071 14.4647 11.7471 13.8437C11.5051 14.0077 11.5051 14.0077 11.0191 12.6407L9.1761 13.9797C9.6661 14.3197 10.0861 14.7547 10.4091 15.2577C10.7501 15.7907 10.9721 16.3667 11.0701 16.9787C11.1071 17.2217 11.1241 17.4707 11.1241 17.7227C11.1241 18.3647 10.9991 18.9767 10.7701 19.5197C10.5401 20.0667 10.2091 20.5547 9.7911 20.9547L11.7491 22C12.6701 21.1067 13.2371 19.9787 13.4951 18.7737C13.5861 18.2857 13.6371 17.7827 13.6371 17.2797C13.6371 16.9107 13.6001 16.5467 13.5351 16.1947H12.6371V16.1937Z" fill="#EA4335"/>
<path d="M6.4001 18.6868C5.7991 17.9688 5.3481 17.1428 5.0711 16.2498L5.0561 16.2548L2.1271 19.1708L2.1311 19.1868C3.1691 20.6778 4.5511 21.8978 6.1551 22.7038L8.0121 21.3668C7.7961 21.1998 7.5961 21.0068 7.4141 20.7958C6.9461 20.2378 6.6031 19.4928 6.4001 18.6868Z" fill="#FBBC05"/>
<path d="M11.7471 14.8048C12.3111 14.8048 12.8321 14.9148 13.3141 15.1028L15.0401 14.9718L14.9831 14.9258L12.9541 7.08582C12.5751 6.94182 12.1671 6.86982 11.7461 6.86982C10.5651 6.86982 9.5351 7.51182 9.0031 8.42682L8.9461 14.9468C9.5871 14.1338 10.6171 14.8048 11.7471 14.8048Z" fill="#4285F4"/>
<path d="M4.8411 11.8778C4.8411 12.7168 5.0261 13.5158 5.3491 14.2368L7.3491 13.3968C7.1271 12.9118 7.0001 12.3798 7.0001 11.8168C7.0001 11.2538 7.1271 10.7218 7.3491 10.2368L5.3521 9.35279C5.0271 10.0758 4.8411 10.9068 4.8411 11.8778Z" fill="#34A853"/>
</svg>