<svg width="24" height="24" viewBox="0 0 24 24" fill="none" xmlns="http://www.w3.org/2000/svg">
<path d="M23.6 9.58L23.45 9.16L20.34 0.83C20.27 0.64 20.15 0.47 19.98 0.35C19.82 0.23 19.62 0.16 19.41 0.15C19.21 0.15 19.01 0.21 18.84 0.32C18.67 0.43 18.54 0.59 18.46 0.78L16.13 7.11H7.87L5.54 0.78C5.47 0.59 5.34 0.43 5.17 0.32C5 0.21 4.8 0.15 4.59 0.15C4.39 0.16 4.19 0.23 4.02 0.35C3.86 0.47 3.73 0.64 3.66 0.83L0.55 9.16L0.4 9.58C0.18 10.13 0.11 10.73 0.19 11.32C0.27 11.91 0.5 12.47 0.86 12.93L8.18 21.93C8.19 21.94 8.19 21.95 8.2 21.96C8.2 21.97 8.21 21.97 8.21 21.98C8.22 21.98 8.22 21.99 8.23 21.99C8.23 22 8.24 22 8.24 22C8.34 22.09 8.47 22.15 8.6 22.15H15.4C15.5 22.15 15.59 22.12 15.67 22.07C15.69 22.06 15.7 22.04 15.71 22.03C15.72 22.02 15.73 22.02 15.74 22.01C15.74 22.01 15.75 22 15.75 22C15.76 21.99 15.76 21.99 15.77 21.98C15.77 21.98 15.78 21.97 15.78 21.97C15.79 21.96 15.79 21.95 15.8 21.94L23.14 12.93C23.5 12.47 23.73 11.91 23.81 11.32C23.89 10.73 23.82 10.13 23.6 9.58Z" fill="#E24329"/>
<path d="M23.6 9.58L23.45 9.16L20.34 0.83C20.27 0.64 20.15 0.47 19.98 0.35C19.82 0.23 19.62 0.16 19.41 0.15C19.21 0.15 19.01 0.21 18.84 0.32C18.67 0.43 18.54 0.59 18.46 0.78L16.13 7.11H12V22.15H15.4C15.5 22.15 15.59 22.12 15.67 22.07C15.69 22.06 15.7 22.04 15.71 22.03C15.72 22.02 15.73 22.02 15.74 22.01C15.74 22.01 15.75 22 15.75 22C15.76 21.99 15.76 21.99 15.77 21.98C15.77 21.98 15.78 21.97 15.78 21.97C15.79 21.96 15.79 21.95 15.8 21.94L23.14 12.93C23.5 12.47 23.73 11.91 23.81 11.32C23.89 10.73 23.82 10.13 23.6 9.58Z" fill="#FC6D26"/>
<path d="M8.18 21.93L8.12 21.85L12 16.86L15.88 21.85L15.82 21.93C15.82 21.94 15.81 21.94 15.81 21.95C15.81 21.96 15.8 21.96 15.8 21.97C15.8 21.97 15.79 21.98 15.79 21.98C15.79 21.98 15.79 21.98 15.79 21.99C15.79 21.99 15.78 21.99 15.78 22C15.78 22 15.77 22.01 15.77 22.01C15.77 22.01 15.76 22.02 15.76 22.02C15.76 22.02 15.75 22.03 15.75 22.03C15.75 22.03 15.74 22.04 15.74 22.04C15.67 22.09 15.58 22.12 15.48 22.12H8.52C8.42 22.12 8.33 22.09 8.26 22.04C8.24 22.03 8.23 22.01 8.22 22L8.18 21.93Z" fill="#FCA326"/>
<path d="M8.18 21.93L8.12 21.85L12 16.86V16.86L15.88 21.85L15.82 21.93C15.82 21.94 15.81 21.94 15.81 21.95C15.81 21.96 15.8 21.96 15.8 21.97C15.8 21.97 15.79 21.98 15.79 21.98C15.79 21.98 15.79 21.98 15.79 21.99C15.79 21.99 15.78 21.99 15.78 22C15.78 22 15.77 22.01 15.77 22.01C15.77 22.01 15.76 22.02 15.76 22.02C15.76 22.02 15.75 22.03 15.75 22.03C15.75 22.03 15.74 22.04 15.74 22.04C15.67 22.09 15.58 22.12 15.48 22.12H12V16.86H12L8.18 21.93Z" fill="#E24329"/>
<path d="M4.62 7.11L5.54 0.78C5.61 0.59 5.74 0.43 5.91 0.32C6.08 0.21 6.28 0.15 6.48 0.15C6.69 0.16 6.88 0.23 7.05 0.35C7.21 0.47 7.34 0.64 7.41 0.83L9.74 7.11H4.62Z" fill="#FC6D26"/>
<path d="M16.13 7.11L18.46 0.78C18.54 0.59 18.67 0.43 18.84 0.32C19 0.21 19.21 0.15 19.41 0.15C19.62 0.16 19.82 0.23 19.98 0.35C20.15 0.47 20.27 0.64 20.34 0.83L23.45 9.16L23.6 9.58C23.82 10.13 23.89 10.73 23.81 11.32C23.73 11.91 23.5 12.47 23.14 12.93L15.8 21.94C15.79 21.95 15.79 21.96 15.78 21.97C15.78 21.97 15.77 21.98 15.77 21.98C15.76 21.99 15.76 21.99 15.75 22C15.75 22 15.74 22.01 15.74 22.01C15.73 22.02 15.72 22.02 15.71 22.03C15.7 22.04 15.69 22.06 15.67 22.07C15.59 22.12 15.5 22.15 15.4 22.15H8.6C8.47 22.15 8.34 22.09 8.24 22C8.24 22 8.23 21.99 8.23 21.99C8.22 21.99 8.22 21.98 8.21 21.98C8.21 21.97 8.2 21.97 8.2 21.96C8.19 21.95 8.19 21.94 8.18 21.93L0.86 12.93C0.5 12.47 0.27 11.91 0.19 11.32C0.11 10.73 0.18 10.13 0.4 9.58L0.55 9.16L3.66 0.83C3.73 0.64 3.86 0.47 4.02 0.35C4.19 0.23 4.39 0.16 4.59 0.15C4.8 0.15 5 0.21 5.17 0.32C5.34 0.43 5.47 0.59 5.54 0.78L7.87 7.11H16.13ZM16.13 7.11H7.87L12 17.6L16.13 7.11Z" fill="#FC6D26"/>
</svg>