<svg width="24" height="24" viewBox="0 0 24 24" fill="none" xmlns="http://www.w3.org/2000/svg">
<path d="M11.9993 0.144775C11.7493 0.144775 11.4994 0.197024 11.2744 0.303274L3.03067 4.25721C2.56821 4.47721 2.2182 4.87746 2.03245 5.37121L0.0644455 13.9287C-0.120054 14.4277 -0.0200535 14.9724 0.286454 15.3877L6.01944 23.1877C6.32669 23.606 6.79344 23.8532 7.2994 23.8532H16.6992C17.2049 23.8532 17.6719 23.606 17.9792 23.1877L23.7122 15.3877C24.0187 14.9719 24.1187 14.4277 23.9342 13.9287L21.9665 5.37121C21.7805 4.87746 21.4305 4.47696 20.9682 4.25721L12.7242 0.303274C12.4992 0.197024 12.2493 0.144775 11.9993 0.144775V0.144775Z" fill="white"/>
<path d="M11.9993 0.739736C11.8393 0.739736 11.6794 0.774986 11.5294 0.845236L3.28567 4.79918C2.96817 4.94918 2.73067 5.22193 2.60817 5.56167L0.639673 14.1192C0.509683 14.4622 0.577423 14.8244 0.789673 15.1069L6.52267 22.9069C6.73742 23.1932 7.05192 23.3582 7.39017 23.3582H16.79C17.1282 23.3582 17.4427 23.1932 17.6575 22.9069L23.3905 15.1069C23.603 14.8242 23.6705 14.4622 23.5405 14.1192L21.572 5.56142C21.4492 5.22193 21.2117 4.94893 20.8945 4.79918L12.6505 0.845236C12.5005 0.774986 12.2505 0.739736 11.9993 0.739736V0.739736Z" fill="#326CE5"/>
<path d="M12.018 4.87573C9.6105 4.87573 7.65175 6.83448 7.65175 9.24198C7.65175 11.6495 9.6105 13.6082 12.018 13.6082C14.4255 13.6082 16.3843 11.6495 16.3843 9.24198C16.3843 6.83448 14.4255 4.87573 12.018 4.87573Z" fill="#326CE5"/>
<path d="M19.3918 9.77498C19.6018 9.39998 19.4905 8.92923 19.1168 8.71923L16.4443 7.19548L16.4655 7.16423C16.6593 6.87448 16.5768 6.46948 16.2868 6.27523C15.9968 6.08048 15.5918 6.16323 15.3968 6.45323L15.3755 6.48473L13.013 5.61498C12.938 5.43248 12.7705 5.29748 12.5505 5.26198L12.5055 5.25273C12.073 5.18323 11.6868 5.46498 11.618 5.89748L11.613 5.93998L8.9493 5.82373C8.82055 5.65673 8.56805 5.51523 8.40855 5.51523L8.09955 5.51623C7.73305 5.51623 7.43605 5.81323 7.43555 6.17973L7.43605 6.31398L5.08955 7.13948L5.0833 7.10073C4.9383 6.79398 4.5708 6.66348 4.26405 6.80773C3.9573 6.95273 3.8268 7.32023 3.9718 7.62698L3.98055 7.64623L1.74105 10.0487C1.55255 10.0377 1.3703 10.146 1.30655 10.326L1.2928 10.363C1.17505 10.6505 1.31705 10.9702 1.6048 11.088L1.6425 11.1035L2.2453 16.1145C2.2728 16.3492 2.4428 16.5362 2.6765 16.581L2.71455 16.5877C3.04905 16.6465 3.3568 16.4147 3.4163 16.0792L5.09055 16.8867C5.1808 17.2472 5.5468 17.4575 5.90705 17.3675C6.2673 17.2775 6.47805 16.9115 6.38705 16.5512L6.38555 16.5447L8.9803 15.7947L9.02355 15.8187C9.35755 15.9962 9.7703 15.8577 9.94705 15.5237C10.1246 15.1885 9.9871 14.7762 9.6513 14.5997L9.5653 14.5542L10.7783 12.1477L10.818 12.154C11.178 12.2547 11.548 12.0322 11.648 11.6722C11.748 11.3125 11.5263 10.9417 11.1655 10.8425L11.1035 10.8275L10.8335 7.38973C11.0735 7.22748 11.1935 6.92873 11.0935 6.65098L11.081 6.61273C10.938 6.19148 10.4885 5.97098 10.0673 6.11423L10.0273 6.12773L8.31005 4.85073L8.33255 4.83073C8.6068 4.58423 8.63155 4.17173 8.3853 3.89773C8.1388 3.62298 7.7273 3.59798 7.45255 3.84498L7.3698 3.91798L3.7988 3.34723C3.6443 3.15348 3.3828 3.06423 3.1573 3.13498L3.12005 3.14498C2.70555 3.27198 2.45605 3.70248 2.5833 4.11698L2.60105 4.17273L0.94455 7.80598L0.93005 7.79623C0.62155 7.94123 0.48855 8.31048 0.63355 8.61873C0.7778 8.92723 1.1478 9.06023 1.45605 8.91548L1.5703 8.85373L4.25355 10.2717L4.2398 10.303C4.1288 10.6737 4.33305 11.0647 4.7038 11.1757C5.0743 11.2867 5.4656 11.0822 5.5766 10.712L5.58855 10.6742L8.3468 10.6605L8.35505 10.6817C8.4553 11.049 8.8338 11.274 9.2013 11.174C9.56855 11.0737 9.7938 10.6952 9.6933 10.3277L9.68055 10.28L13.118 9.27673C13.2698 9.42698 13.4848 9.51923 13.7098 9.51323L13.7566 9.51023C14.1228 9.48973 14.3991 9.17498 14.3786 8.80898L14.3741 8.74598L16.7831 8.60798L16.7938 8.61673C17.1086 8.77373 17.4793 8.64748 17.6368 8.33273C17.7943 8.01773 17.6675 7.64673 17.3533 7.48923L17.2781 7.45048L19.3903 9.77198L19.3918 9.77498ZM12.018 14.0615C9.361 14.0615 7.19875 11.9 7.19875 9.24223C7.19875 6.58448 9.361 4.42298 12.018 4.42298C14.675 4.42298 16.8372 6.58448 16.8372 9.24223C16.8372 11.9 14.6753 14.0615 12.018 14.0615ZM16.9923 19.32C16.9923 19.6845 16.6965 19.9805 16.3323 19.9805C15.9678 19.9805 15.6723 19.6845 15.6723 19.32C15.6723 18.9555 15.968 18.6595 16.3325 18.6595C16.6965 18.6595 16.9923 18.9555 16.9923 19.32Z" fill="white"/>
</svg>