<svg width="24" height="24" viewBox="0 0 24 24" xmlns="http://www.w3.org/2000/svg">
<path d="M17.1933 6.146C16.0593 4.464 14.9213 2.782 14.7553 2.41C14.6693 2.23 14.5673 2.06 14.4533 1.9C14.3533 1.928 14.2533 1.97 14.1613 2.028C12.9293 3.47 6.0253 13.446 5.9653 13.55C5.9613 13.558 7.0333 15.066 8.2533 16.232C8.9893 16.934 9.8293 17.57 10.7493 18.13C11.6693 18.69 12.6593 19.166 13.5013 19.358C13.5053 19.35 13.5093 19.346 13.5133 19.338C13.9393 18.234 17.4053 7.994 17.4053 7.682L17.1933 6.146Z" fill="#10AA50"/>
<path d="M14.7773 20.338C14.7053 20.69 14.6093 20.814 14.4333 20.87C14.4333 20.87 14.4773 21 14.6933 21C15.0853 21 15.9333 20.274 15.9333 20.274C15.9333 20.274 15.2253 20.262 14.7773 20.338Z" fill="#B8C4C2"/>
<path d="M14.4525 20.87C14.5405 20.446 14.6305 19.57 14.6305 19.57C14.3505 18.906 14.1385 18.218 14.0145 17.514C14.0145 17.514 13.8185 18.338 14.1345 19.618C14.1345 19.618 14.0905 20.126 14.4525 20.87Z" fill="#12924F"/>
<path d="M10.7496 18.13C11.6696 18.69 12.6596 19.166 13.5016 19.358C13.5056 19.35 13.5096 19.346 13.5136 19.338C13.9396 18.234 17.4056 7.994 17.4056 7.682L17.1936 6.146C16.0596 4.464 14.9216 2.782 14.7556 2.41L14.0016 17.406C13.8936 17.426 11.3936 18.938 10.7496 18.13Z" fill="#21313C"/>
</svg>