<svg xmlns="http://www.w3.org/2000/svg" width="40" height="40"><path d="M28.589 14.135l-.014-.006c-.008-.003-.016-.006-.023-.013a.11.11 0 0 1-.028-.093l.773-4.726 3.625 3.626-3.77 1.604a.083.083 0 0 1-.033.006h-.015a.104.104 0 0 1-.02-.017 1.716 1.716 0 0 0-.495-.381zm5.258-.288l3.876 3.876c.805.806 1.208 1.208 1.355 1.674.022.069.04.138.054.209l-9.263-3.923a.728.728 0 0 0-.015-.006c-.037-.015-.08-.032-.08-.07 0-.038.044-.056.081-.071l.012-.005 3.98-1.684zm5.127 7.003c-.2.376-.59.766-1.25 1.427l-4.37 4.369-5.652-1.177-.003-.001c-.062-.013-.103-.055-.103-.109 0-.049.033-.085.079-.104l.013-.005 11.287-4.398c.002 0 .003-.001.004-.001.005 0 .008.002.011.004.002.002.003.005.003.009a.146.146 0 0 1-.019.054l-.003.008zm-6.63 6.806l-5.517 5.517c-.886.887-1.443 1.443-2.277 1.615l-8.325-12.134c-.002-.004-.006-.007-.01-.009a.146.146 0 0 0-.057-.016c-.046 0-.09.028-.093.074l-.81 6.483c-.003.044-.036.095-.093.095-.039 0-.07-.018-.093-.049l-1.6-2.107c-.024-.032-.034-.072-.034-.112 0-.076.056-.139.131-.153.023-.006.084-.013.196-.023l.289-.034a.161.161 0 0 0 .14-.156.145.145 0 0 0-.118-.143l-.021-.004c-.071-.014-.137-.027-.206-.031a.304.304 0 0 0-.046-.001c-.055.001-.11.007-.165.021l-.11.046c-.013.006-.027.014-.027.025 0 .017.021.032.031.037l.051.014c.018.005.038.01.038.029 0 .024-.019.034-.033.04l-.068.024a.187.187 0 0 0-.097.096c-.01.022-.015.047-.015.073 0 .037.014.073.038.103a.67.67 0 0 0 .022.033L6.997 20.54c.015.026.015.055.008.082l-.03.106c-.009.035-.027.07-.05.095-.024.026-.061.039-.095.039-.031 0-.066-.013-.091-.038l-.342-.354a.166.166 0 0 0-.119-.033c-.047.006-.094.037-.121.084l-1.539 2.633c-.007.013-.014.027-.014.043 0 .039.032.07.07.07h.001c.017 0 .032-.007.046-.016l.037-.02c.102-.066.235-.155.33-.228l.108-.082a.17.17 0 0 1 .085-.025c.032 0 .064.01.086.03l.031.023c.023.018.031.048.031.075 0 .037-.019.074-.05.1l-.223.216a.333.333 0 0 0-.079.214c0 .032.009.061.024.09.036.064.098.112.162.144l.069.035a.17.17 0 0 1 .078.086c.01.027.013.056.013.086 0 .043-.017.086-.049.114l-.166.143c-.021.019-.049.029-.077.029-.03 0-.058-.011-.08-.03l-.303-.299c-.031-.03-.073-.046-.116-.046h-.003c-.043 0-.085.016-.115.045-.031.03-.046.072-.045.115v.002c0 .023.005.045.013.067.023.061.069.115.118.158l.309.276a.206.206 0 0 1 .063.125c.004.038-.004.076-.023.108-.264.444-.377.726-.455 1.113a6.795 6.795 0 0 0-.09 1.078c0 .391.036.791.125 1.21.046.22.109.435.189.645.086.226.19.443.308.65l.089.151c.032.05.069.099.11.146l.271.35c.036.046.078.089.123.127l.114.095c.046.034.092.067.142.097l.358.22.907.47c.504.266 1.043.603 1.612.86.083.036.167.072.253.105l.116.044a4.57 4.57 0 0 0 1.966.4c.173 0 .347-.01.519-.028.17-.02.347-.05.522-.08l.195-.043c.038-.1.075-.018.113-.027.628-.151 1.234-.382 1.813-.689.516-.273 1.005-.605 1.463-.991.03-.024.06-.047.09-.073.072-.06.144-.12.211-.186a6.68 6.68 0 0 0 .491-.516l.201-.24.137-.173.121-.161.083-.112c.025-.034.049-.067.073-.1l.081-.122.083-.131c.02-.031.037-.062.055-.093a6.91 6.91 0 0 0 .191-.371l.066-.15.041-.097.08-.19c.074-.186.135-.374.18-.565.051-.213.089-.427.115-.643l.031-.276.004-.059c0-.026.006-.052.006-.079 0-.005 0-.009-.001-.013a.154.154 0 0 0-.004-.028l-.866-12.598zM13.5 15.782a2.739 2.739 0 0 0-.497 1.614c0 .344.064.683.189 1 .022.052.048.101.075.152l.023.041a2.646 2.646 0 0 0 .299.404c.262.292.585.526.947.682.361.155.757.234 1.158.234.343 0 .683-.064 1-.189a2.738 2.738 0 0 0 1.334-1.246c.156-.362.235-.758.235-1.158 0-.344-.064-.683-.189-1l-.026-.054c-.105-.241-.253-.458-.426-.648a2.839 2.839 0 0 0-.82-.636 2.733 2.733 0 0 0-1.158-.235c-.771 0-1.497.301-2.044.847zm18.354-3.646H19.481l9.805-4.165a.229.229 0 0 0 .046-.033.1.1 0 0 1 .016-.018c.025-.029.054-.057.082-.083l.058-.053a.342.342 0 0 0 .112-.17.293.293 0 0 0 .013-.105c0-.038-.012-.077-.034-.112l-.233-.325a.218.218 0 0 0-.073-.068l-.04-.025a.218.218 0 0 0-.219.013l-6.238 4.8H9.841c-.049 0-.092.021-.122.054l-.024.025a.176.176 0 0 0-.011.017.164.164 0 0 0-.022.066c-.009.036-.048.095-.111.095a.143.143 0 0 1-.094-.037l-.02-.018-.018-.013a.384.384 0 0 0-.057-.03l-.032-.013a.27.27 0 0 0-.147 0l-.034.013-.033.015-.037.02-.066.041c-.074.051-.163.121-.208.158l-.044.035-.094.078a.913.913 0 0 0-.121.122.409.409 0 0 0-.062.108l-.023.06a.279.279 0 0 0-.011.067c0 .126.103.229.23.229h22.003zm-14.545 4.407l-3.84 4.7-1.958-6.129 5.798 1.43zm7.784 4.704l-.007.007c-.1.077-.028.137-.086.137-.01 0-.021-.002-.033-.007l-9.41-4.02 6.355-7.771 3.181 11.654z" fill="#00c7b7" fill-rule="evenodd"/></svg>