<svg width="24" height="24" viewBox="0 0 24 24" fill="none" xmlns="http://www.w3.org/2000/svg">
<path d="M14.23 12.004C14.23 13.308 13.176 14.362 11.872 14.362C10.568 14.362 9.51403 13.308 9.51403 12.004C9.51403 10.7 10.568 9.646 11.872 9.646C13.176 9.646 14.23 10.7 14.23 12.004Z" fill="#61DAFB"/>
<path fill-rule="evenodd" clip-rule="evenodd" d="M11.8728 5.08603C14.9188 5.08603 17.7858 5.77403 19.8218 6.95003C22.3358 8.39303 23.7218 10.428 23.7218 12.004C23.7218 13.654 22.2348 15.774 19.5748 17.256C17.5528 18.406 14.7338 19.024 11.8728 19.024C8.91883 19.024 6.01283 18.384 3.95783 17.184C1.46283 15.726 -0.000167847 13.578 -0.000167847 12.004C-0.000167847 10.468 1.37183 8.37203 3.87983 6.93203C5.91783 5.77403 8.85183 5.08603 11.8718 5.08603H11.8728ZM11.8728 6.58603C9.14683 6.58603 6.54883 7.20403 4.80083 8.19803C2.68883 9.39203 1.49983 10.998 1.49983 12.004C1.49983 13.046 2.76283 14.714 4.96583 15.932C6.74183 16.952 9.24883 17.524 11.8728 17.524C14.4028 17.524 16.9828 16.976 18.7778 15.986C20.9648 14.776 22.2218 13.094 22.2218 12.004C22.2218 10.946 20.9708 9.30803 18.7708 8.10603C16.9928 7.12403 14.4728 6.58603 11.8728 6.58603Z" fill="#61DAFB"/>
<path fill-rule="evenodd" clip-rule="evenodd" d="M4.96175 7.80405C6.47975 5.11605 8.51375 3.14205 10.4648 2.25005C12.8248 1.18405 15.1398 1.50405 16.4678 3.15005C17.8478 4.86205 18.0748 7.51605 17.3308 10.472C16.6878 13.082 15.2598 15.944 13.5038 18.504C11.7148 21.1 9.57775 23.022 7.57775 23.946C5.19775 25.046 2.86975 24.742 1.52975 23.072C0.227752 21.454 -0.00224771 18.944 0.649752 16.132C1.23575 13.628 2.87375 10.668 4.96175 7.80405ZM5.97175 9.00005C4.10975 11.5 2.63375 14.144 2.12175 16.302C1.56175 18.69 1.73775 20.622 2.59775 21.738C3.46975 22.866 5.07175 23.026 6.79575 22.21C8.43375 21.448 10.3378 19.778 11.9558 17.44C13.5278 15.154 14.8358 12.566 15.4178 10.244C16.0438 7.75605 15.9318 5.71405 14.9878 4.48405C14.0768 3.29605 12.4978 3.14205 10.8438 3.85005C9.26175 4.52805 7.50175 6.20005 5.97175 9.00005Z" fill="#61DAFB"/>
</svg>