<svg width="24" height="24" viewBox="0 0 24 24" fill="none" xmlns="http://www.w3.org/2000/svg">
<path d="M13.479 9.811C11.6489 9.10988 10.523 8.65202 10.523 7.93688C10.523 7.32607 11.0543 6.93082 11.9358 6.93082C13.7001 6.93082 15.623 7.84973 16.9819 8.53009L17.7977 5.20287C16.8847 4.6983 15.1519 3.85999 12.8334 3.85999C9.48078 3.85999 7.01465 5.65371 7.01465 8.17963C7.01465 10.3339 8.91748 11.52 11.7272 12.5918C13.6501 13.2933 14.2784 13.8041 14.2784 14.5404C14.2784 15.2139 13.6501 15.6655 12.4586 15.6655C10.7887 15.6655 8.47888 14.7466 6.75891 13.8041L5.91406 17.131C7.55322 18.1968 9.77171 19.0351 12.3872 19.0351C16.2802 19.0351 18.4901 17.3823 18.4901 14.4834C18.4901 12.0487 16.6851 10.864 13.479 9.811Z" fill="#635BFF"/>
</svg>