<svg width="24" height="24" viewBox="0 0 24 24" fill="none" xmlns="http://www.w3.org/2000/svg">
<path d="M12.0012 6C10.0012 6 8.66785 6.66667 8.00119 8C8.53452 7.33333 9.15119 7.06667 9.85119 7.2C10.2809 7.28113 10.5919 7.56193 10.9384 7.88C11.5099 8.40573 12.1739 9 14.0012 9C16.0012 9 17.3345 8.33333 18.0012 7C17.4679 7.66667 16.8512 7.93333 16.1512 7.8C15.7215 7.71887 15.4105 7.43807 15.064 7.12C14.4925 6.59427 13.8285 6 12.0012 6ZM8.00119 12C6.00119 12 4.66785 12.6667 4.00119 14C4.53452 13.3333 5.15119 13.0667 5.85119 13.2C6.28092 13.2811 6.59192 13.5619 6.93839 13.88C7.50992 14.4057 8.17385 15 10.0012 15C12.0012 15 13.3345 14.3333 14.0012 13C13.4679 13.6667 12.8512 13.9333 12.1512 13.8C11.7215 13.7189 11.4105 13.4381 11.064 13.12C10.4925 12.5943 9.82852 12 8.00119 12Z" fill="#38B2AC"/>
</svg>